<svg xmlns="http://www.w3.org/2000/svg" viewBox="0 0 54 54"><defs><style>.cls-1{fill:#3783f3;}.cls-2{fill:#fff;}</style></defs><title>Billplz_Favicon</title><g id="Layer_2" data-name="Layer 2"><g id="Layer_1-2" data-name="Layer 1"><path id="Rectangle_202-2" data-name="Rectangle 202-2" class="cls-1" d="M27,0h0A27,27,0,0,1,54,27h0A27,27,0,0,1,27,54h0A27,27,0,0,1,0,27H0A27,27,0,0,1,27,0Z"/><g id="Group_1" data-name="Group 1"><path id="Path_1" data-name="Path 1" class="cls-2" d="M11.48,16.72H19.2c3.62,0,7.57.76,7.57,5.26a4.68,4.68,0,0,1-3.57,4.56v.05a5,5,0,0,1,4.53,5.07c0,4.32-4.09,5.76-7.78,5.76H11.48ZM16,25h3.31c1.4,0,2.87-.59,2.87-2.25s-1.64-2.17-3.07-2.17H16Zm0,8.56h4.1c1.43,0,3-.61,3-2.42S21,28.84,19.48,28.84H16Z"/><path id="Path_7" data-name="Path 7" class="cls-2" d="M29.84,33l7.37-6.32H30v-3.5H42.3v4.22l-7.72,6.49h7.9v3.5H29.85Z"/></g></g></g></svg>